<?xml version="1.0" encoding="UTF-8" standalone="no"?>
<!DOCTYPE svg PUBLIC "-//W3C//DTD SVG 1.1//EN"
 "http://www.w3.org/Graphics/SVG/1.1/DTD/svg11.dtd">
<!-- Generated by graphviz version 9.0.0 (20230911.1827)
 -->
<!-- Pages: 1 -->
<svg width="1030pt" height="1030pt"
 viewBox="0.00 0.00 581.50 1030.12" xmlns="http://www.w3.org/2000/svg" xmlns:xlink="http://www.w3.org/1999/xlink">
<g id="graph0" class="graph" transform="scale(1 1) rotate(0) translate(4 1026.12)">
<polygon fill="white" stroke="none" points="-4,4 -4,-1026.12 577.5,-1026.12 577.5,4 -4,4"/>
<!-- User -->
<g id="node1" class="node">
<title>User</title>
<polygon fill="none" stroke="black" points="8,-503.5 8,-533 119.25,-533 119.25,-503.5 8,-503.5"/>
<text text-anchor="start" x="43" y="-513.8" font-family="Helvetica,sans-Serif" font-weight="bold" font-size="16.00">User</text>
<polygon fill="none" stroke="black" points="8,-476.25 8,-503.5 119.25,-503.5 119.25,-476.25 8,-476.25"/>
<text text-anchor="start" x="13" y="-486.2" font-family="Helvetica,sans-Serif" text-decoration="underline" font-size="14.00">id</text>
<polygon fill="none" stroke="black" points="8,-449 8,-476.25 119.25,-476.25 119.25,-449 8,-449"/>
<text text-anchor="start" x="13" y="-457.95" font-family="Helvetica,sans-Serif" font-size="14.00">appId</text>
<polygon fill="none" stroke="black" points="8,-421.75 8,-449 119.25,-449 119.25,-421.75 8,-421.75"/>
<text text-anchor="start" x="13" y="-430.7" font-family="Helvetica,sans-Serif" font-size="14.00">username</text>
<polygon fill="none" stroke="black" points="8,-394.5 8,-421.75 119.25,-421.75 119.25,-394.5 8,-394.5"/>
<text text-anchor="start" x="13" y="-403.45" font-family="Helvetica,sans-Serif" font-size="14.00">email</text>
<polygon fill="none" stroke="black" points="8,-367.25 8,-394.5 119.25,-394.5 119.25,-367.25 8,-367.25"/>
<text text-anchor="start" x="13" y="-376.2" font-family="Helvetica,sans-Serif" font-size="14.00">passwordHash</text>
<polygon fill="none" stroke="black" points="8,-340 8,-367.25 119.25,-367.25 119.25,-340 8,-340"/>
<text text-anchor="start" x="13" y="-348.95" font-family="Helvetica,sans-Serif" font-size="14.00">isVerified</text>
<polygon fill="none" stroke="black" points="8,-312.75 8,-340 119.25,-340 119.25,-312.75 8,-312.75"/>
<text text-anchor="start" x="13" y="-321.7" font-family="Helvetica,sans-Serif" font-size="14.00">profile</text>
<polygon fill="none" stroke="black" points="8,-285.5 8,-312.75 119.25,-312.75 119.25,-285.5 8,-285.5"/>
<text text-anchor="start" x="13" y="-294.45" font-family="Helvetica,sans-Serif" font-size="14.00">status</text>
<polygon fill="none" stroke="black" points="8,-258.25 8,-285.5 119.25,-285.5 119.25,-258.25 8,-258.25"/>
<text text-anchor="start" x="13" y="-267.2" font-family="Helvetica,sans-Serif" font-size="14.00">createdAt</text>
</g>
<!-- Token -->
<g id="node2" class="node">
<title>Token</title>
<polygon fill="none" stroke="black" points="243.12,-588.5 243.12,-618 322.12,-618 322.12,-588.5 243.12,-588.5"/>
<text text-anchor="start" x="256.38" y="-598.8" font-family="Helvetica,sans-Serif" font-weight="bold" font-size="16.00">Token</text>
<polygon fill="none" stroke="black" points="243.12,-561.25 243.12,-588.5 322.12,-588.5 322.12,-561.25 243.12,-561.25"/>
<text text-anchor="start" x="248.12" y="-571.2" font-family="Helvetica,sans-Serif" text-decoration="underline" font-size="14.00">id</text>
<polygon fill="none" stroke="black" points="243.12,-534 243.12,-561.25 322.12,-561.25 322.12,-534 243.12,-534"/>
<text text-anchor="start" x="248.12" y="-542.95" font-family="Helvetica,sans-Serif" font-size="14.00">userId</text>
<polygon fill="none" stroke="black" points="243.12,-506.75 243.12,-534 322.12,-534 322.12,-506.75 243.12,-506.75"/>
<text text-anchor="start" x="248.12" y="-515.7" font-family="Helvetica,sans-Serif" font-size="14.00">appId</text>
<polygon fill="none" stroke="black" points="243.12,-479.5 243.12,-506.75 322.12,-506.75 322.12,-479.5 243.12,-479.5"/>
<text text-anchor="start" x="248.12" y="-488.45" font-family="Helvetica,sans-Serif" font-size="14.00">deviceId</text>
<polygon fill="none" stroke="black" points="243.12,-452.25 243.12,-479.5 322.12,-479.5 322.12,-452.25 243.12,-452.25"/>
<text text-anchor="start" x="248.12" y="-461.2" font-family="Helvetica,sans-Serif" font-size="14.00">type</text>
<polygon fill="none" stroke="black" points="243.12,-425 243.12,-452.25 322.12,-452.25 322.12,-425 243.12,-425"/>
<text text-anchor="start" x="248.12" y="-433.95" font-family="Helvetica,sans-Serif" font-size="14.00">token</text>
<polygon fill="none" stroke="black" points="243.12,-397.75 243.12,-425 322.12,-425 322.12,-397.75 243.12,-397.75"/>
<text text-anchor="start" x="248.12" y="-406.7" font-family="Helvetica,sans-Serif" font-size="14.00">expiresAt</text>
<polygon fill="none" stroke="black" points="243.12,-370.5 243.12,-397.75 322.12,-397.75 322.12,-370.5 243.12,-370.5"/>
<text text-anchor="start" x="248.12" y="-379.45" font-family="Helvetica,sans-Serif" font-size="14.00">createdAt</text>
<polygon fill="none" stroke="black" points="243.12,-343.25 243.12,-370.5 322.12,-370.5 322.12,-343.25 243.12,-343.25"/>
<text text-anchor="start" x="248.12" y="-352.2" font-family="Helvetica,sans-Serif" font-size="14.00">revokedAt</text>
</g>
<!-- User&#45;&#45;Token -->
<g id="edge5" class="edge">
<title>User&#45;&#45;Token</title>
<path fill="none" stroke="#7f7f7f" stroke-dasharray="5,2" d="M127.1,-420.1C161.66,-433.63 203.86,-450.16 235.42,-462.53"/>
<text text-anchor="start" x="205.42" y="-449.23" font-family="Times,serif" font-size="14.00">0..N</text>
<text text-anchor="start" x="127.1" y="-406.8" font-family="Times,serif" font-size="14.00">1</text>
</g>
<!-- Device -->
<g id="node3" class="node">
<title>Device</title>
<polygon fill="none" stroke="black" points="446,-988.62 446,-1018.12 565.5,-1018.12 565.5,-988.62 446,-988.62"/>
<text text-anchor="start" x="475.75" y="-998.92" font-family="Helvetica,sans-Serif" font-weight="bold" font-size="16.00">Device</text>
<polygon fill="none" stroke="black" points="446,-961.38 446,-988.62 565.5,-988.62 565.5,-961.38 446,-961.38"/>
<text text-anchor="start" x="451" y="-971.33" font-family="Helvetica,sans-Serif" text-decoration="underline" font-size="14.00">id</text>
<polygon fill="none" stroke="black" points="446,-934.12 446,-961.38 565.5,-961.38 565.5,-934.12 446,-934.12"/>
<text text-anchor="start" x="451" y="-943.08" font-family="Helvetica,sans-Serif" font-size="14.00">userId</text>
<polygon fill="none" stroke="black" points="446,-906.88 446,-934.12 565.5,-934.12 565.5,-906.88 446,-906.88"/>
<text text-anchor="start" x="451" y="-915.83" font-family="Helvetica,sans-Serif" font-size="14.00">userAgent</text>
<polygon fill="none" stroke="black" points="446,-879.62 446,-906.88 565.5,-906.88 565.5,-879.62 446,-879.62"/>
<text text-anchor="start" x="451" y="-888.58" font-family="Helvetica,sans-Serif" font-size="14.00">deviceType</text>
<polygon fill="none" stroke="black" points="446,-852.38 446,-879.62 565.5,-879.62 565.5,-852.38 446,-852.38"/>
<text text-anchor="start" x="451" y="-861.33" font-family="Helvetica,sans-Serif" font-size="14.00">ipAddress</text>
<polygon fill="none" stroke="black" points="446,-825.12 446,-852.38 565.5,-852.38 565.5,-825.12 446,-825.12"/>
<text text-anchor="start" x="451" y="-834.08" font-family="Helvetica,sans-Serif" font-size="14.00">browser</text>
<polygon fill="none" stroke="black" points="446,-797.88 446,-825.12 565.5,-825.12 565.5,-797.88 446,-797.88"/>
<text text-anchor="start" x="451" y="-806.83" font-family="Helvetica,sans-Serif" font-size="14.00">browserVersion</text>
<polygon fill="none" stroke="black" points="446,-770.62 446,-797.88 565.5,-797.88 565.5,-770.62 446,-770.62"/>
<text text-anchor="start" x="451" y="-779.58" font-family="Helvetica,sans-Serif" font-size="14.00">os</text>
<polygon fill="none" stroke="black" points="446,-743.38 446,-770.62 565.5,-770.62 565.5,-743.38 446,-743.38"/>
<text text-anchor="start" x="451" y="-752.33" font-family="Helvetica,sans-Serif" font-size="14.00">osVersion</text>
<polygon fill="none" stroke="black" points="446,-716.12 446,-743.38 565.5,-743.38 565.5,-716.12 446,-716.12"/>
<text text-anchor="start" x="451" y="-725.08" font-family="Helvetica,sans-Serif" font-size="14.00">deviceVendor</text>
<polygon fill="none" stroke="black" points="446,-688.88 446,-716.12 565.5,-716.12 565.5,-688.88 446,-688.88"/>
<text text-anchor="start" x="451" y="-697.83" font-family="Helvetica,sans-Serif" font-size="14.00">deviceModel</text>
<polygon fill="none" stroke="black" points="446,-661.62 446,-688.88 565.5,-688.88 565.5,-661.62 446,-661.62"/>
<text text-anchor="start" x="451" y="-670.58" font-family="Helvetica,sans-Serif" font-size="14.00">engine</text>
<polygon fill="none" stroke="black" points="446,-634.38 446,-661.62 565.5,-661.62 565.5,-634.38 446,-634.38"/>
<text text-anchor="start" x="451" y="-643.33" font-family="Helvetica,sans-Serif" font-size="14.00">engineVersion</text>
<polygon fill="none" stroke="black" points="446,-607.12 446,-634.38 565.5,-634.38 565.5,-607.12 446,-607.12"/>
<text text-anchor="start" x="451" y="-616.08" font-family="Helvetica,sans-Serif" font-size="14.00">cpuArchitecture</text>
<polygon fill="none" stroke="black" points="446,-579.88 446,-607.12 565.5,-607.12 565.5,-579.88 446,-579.88"/>
<text text-anchor="start" x="451" y="-588.83" font-family="Helvetica,sans-Serif" font-size="14.00">city</text>
<polygon fill="none" stroke="black" points="446,-552.62 446,-579.88 565.5,-579.88 565.5,-552.62 446,-552.62"/>
<text text-anchor="start" x="451" y="-561.58" font-family="Helvetica,sans-Serif" font-size="14.00">country</text>
<polygon fill="none" stroke="black" points="446,-525.38 446,-552.62 565.5,-552.62 565.5,-525.38 446,-525.38"/>
<text text-anchor="start" x="451" y="-534.33" font-family="Helvetica,sans-Serif" font-size="14.00">region</text>
<polygon fill="none" stroke="black" points="446,-498.12 446,-525.38 565.5,-525.38 565.5,-498.12 446,-498.12"/>
<text text-anchor="start" x="451" y="-507.07" font-family="Helvetica,sans-Serif" font-size="14.00">language</text>
<polygon fill="none" stroke="black" points="446,-470.88 446,-498.12 565.5,-498.12 565.5,-470.88 446,-470.88"/>
<text text-anchor="start" x="451" y="-479.82" font-family="Helvetica,sans-Serif" font-size="14.00">referer</text>
<polygon fill="none" stroke="black" points="446,-443.62 446,-470.88 565.5,-470.88 565.5,-443.62 446,-443.62"/>
<text text-anchor="start" x="451" y="-452.57" font-family="Helvetica,sans-Serif" font-size="14.00">isSecure</text>
<polygon fill="none" stroke="black" points="446,-416.38 446,-443.62 565.5,-443.62 565.5,-416.38 446,-416.38"/>
<text text-anchor="start" x="451" y="-425.32" font-family="Helvetica,sans-Serif" font-size="14.00">timestamp</text>
<polygon fill="none" stroke="black" points="446,-389.12 446,-416.38 565.5,-416.38 565.5,-389.12 446,-389.12"/>
<text text-anchor="start" x="451" y="-398.07" font-family="Helvetica,sans-Serif" font-size="14.00">deviceInfo</text>
</g>
<!-- User&#45;&#45;Device -->
<g id="edge3" class="edge">
<title>User&#45;&#45;Device</title>
<path fill="none" stroke="#7f7f7f" stroke-dasharray="5,2" d="M76.82,-536.66C92.02,-618.91 125.75,-716.44 200.25,-768.62 271.09,-818.24 372.33,-780.45 438.29,-745.12"/>
<text text-anchor="start" x="408.29" y="-731.82" font-family="Times,serif" font-size="14.00">0..N</text>
<text text-anchor="start" x="46.82" y="-540.61" font-family="Times,serif" font-size="14.00">1..N</text>
</g>
<!-- Application -->
<g id="node5" class="node">
<title>Application</title>
<polygon fill="none" stroke="black" points="450.12,-333.12 450.12,-362.62 561.38,-362.62 561.38,-333.12 450.12,-333.12"/>
<text text-anchor="start" x="455.12" y="-343.43" font-family="Helvetica,sans-Serif" font-weight="bold" font-size="16.00">Application</text>
<polygon fill="none" stroke="black" points="450.12,-305.88 450.12,-333.12 561.38,-333.12 561.38,-305.88 450.12,-305.88"/>
<text text-anchor="start" x="455.12" y="-315.82" font-family="Helvetica,sans-Serif" text-decoration="underline" font-size="14.00">id</text>
<polygon fill="none" stroke="black" points="450.12,-278.62 450.12,-305.88 561.38,-305.88 561.38,-278.62 450.12,-278.62"/>
<text text-anchor="start" x="455.12" y="-287.57" font-family="Helvetica,sans-Serif" font-size="14.00">name</text>
</g>
<!-- User&#45;&#45;Application -->
<g id="edge10" class="edge">
<title>User&#45;&#45;Application</title>
<path fill="none" stroke="#7f7f7f" stroke-dasharray="5,2" d="M127.1,-359.03C149.43,-347.77 175.27,-336.74 200.25,-330.62 282.07,-310.61 379.93,-311.63 442.21,-315.26"/>
<text text-anchor="start" x="433.21" y="-301.96" font-family="Times,serif" font-size="14.00">1</text>
<text text-anchor="start" x="127.1" y="-345.73" font-family="Times,serif" font-size="14.00">0..N</text>
</g>
<!-- UserRole -->
<g id="node8" class="node">
<title>UserRole</title>
<polygon fill="none" stroke="black" points="237.5,-245.75 237.5,-275.25 327.75,-275.25 327.75,-245.75 237.5,-245.75"/>
<text text-anchor="start" x="242.5" y="-256.05" font-family="Helvetica,sans-Serif" font-weight="bold" font-size="16.00">UserRole</text>
<polygon fill="none" stroke="black" points="237.5,-218.5 237.5,-245.75 327.75,-245.75 327.75,-218.5 237.5,-218.5"/>
<text text-anchor="start" x="242.5" y="-228.45" font-family="Helvetica,sans-Serif" text-decoration="underline" font-size="14.00">id</text>
<polygon fill="none" stroke="black" points="237.5,-191.25 237.5,-218.5 327.75,-218.5 327.75,-191.25 237.5,-191.25"/>
<text text-anchor="start" x="242.5" y="-200.2" font-family="Helvetica,sans-Serif" font-size="14.00">userId</text>
<polygon fill="none" stroke="black" points="237.5,-164 237.5,-191.25 327.75,-191.25 327.75,-164 237.5,-164"/>
<text text-anchor="start" x="242.5" y="-172.95" font-family="Helvetica,sans-Serif" font-size="14.00">roleId</text>
</g>
<!-- User&#45;&#45;UserRole -->
<g id="edge6" class="edge">
<title>User&#45;&#45;UserRole</title>
<path fill="none" stroke="#7f7f7f" stroke-dasharray="5,2" d="M127.07,-329.89C138.72,-318.71 151.07,-307.52 163.25,-297.62 183.97,-280.78 208.39,-264.21 229.66,-250.7"/>
<text text-anchor="start" x="199.66" y="-254.65" font-family="Times,serif" font-size="14.00">0..N</text>
<text text-anchor="start" x="127.07" y="-316.59" font-family="Times,serif" font-size="14.00">1</text>
</g>
<!-- Token&#45;&#45;Device -->
<g id="edge1" class="edge">
<title>Token&#45;&#45;Device</title>
<path fill="none" stroke="#7f7f7f" stroke-dasharray="5,2" d="M329.98,-527.37C361.39,-559.05 403.37,-601.39 438.32,-636.63"/>
<text text-anchor="start" x="397.82" y="-623.33" font-family="Times,serif" font-size="14.00">{0,1}</text>
<text text-anchor="start" x="329.98" y="-514.07" font-family="Times,serif" font-size="14.00">0..N</text>
</g>
<!-- Token&#45;&#45;Application -->
<g id="edge2" class="edge">
<title>Token&#45;&#45;Application</title>
<path fill="none" stroke="#7f7f7f" stroke-dasharray="5,2" d="M329.98,-447.08C362.65,-423.44 406.78,-391.52 442.51,-365.66"/>
<text text-anchor="start" x="433.51" y="-369.61" font-family="Times,serif" font-size="14.00">1</text>
<text text-anchor="start" x="329.98" y="-433.78" font-family="Times,serif" font-size="14.00">0..N</text>
</g>
<!-- Ip -->
<g id="node4" class="node">
<title>Ip</title>
<polygon fill="none" stroke="black" points="243.5,-725.75 243.5,-755.25 321.75,-755.25 321.75,-725.75 243.5,-725.75"/>
<text text-anchor="start" x="274" y="-736.05" font-family="Helvetica,sans-Serif" font-weight="bold" font-size="16.00">Ip</text>
<polygon fill="none" stroke="black" points="243.5,-698.5 243.5,-725.75 321.75,-725.75 321.75,-698.5 243.5,-698.5"/>
<text text-anchor="start" x="248.5" y="-708.45" font-family="Helvetica,sans-Serif" text-decoration="underline" font-size="14.00">id</text>
<polygon fill="none" stroke="black" points="243.5,-671.25 243.5,-698.5 321.75,-698.5 321.75,-671.25 243.5,-671.25"/>
<text text-anchor="start" x="248.5" y="-680.2" font-family="Helvetica,sans-Serif" font-size="14.00">deviceId</text>
<polygon fill="none" stroke="black" points="243.5,-644 243.5,-671.25 321.75,-671.25 321.75,-644 243.5,-644"/>
<text text-anchor="start" x="248.5" y="-652.95" font-family="Helvetica,sans-Serif" font-size="14.00">ipAddress</text>
</g>
<!-- Ip&#45;&#45;Device -->
<g id="edge4" class="edge">
<title>Ip&#45;&#45;Device</title>
<path fill="none" stroke="#7f7f7f" stroke-dasharray="5,2" d="M329.71,-700.46C361.1,-701.03 403.15,-701.79 438.17,-702.42"/>
<text text-anchor="start" x="408.17" y="-689.12" font-family="Times,serif" font-size="14.00">0..N</text>
<text text-anchor="start" x="329.71" y="-687.16" font-family="Times,serif" font-size="14.00">0..N</text>
</g>
<!-- Role -->
<g id="node6" class="node">
<title>Role</title>
<polygon fill="none" stroke="black" points="462.12,-222.75 462.12,-252.25 549.38,-252.25 549.38,-222.75 462.12,-222.75"/>
<text text-anchor="start" x="486.25" y="-233.05" font-family="Helvetica,sans-Serif" font-weight="bold" font-size="16.00">Role</text>
<polygon fill="none" stroke="black" points="462.12,-195.5 462.12,-222.75 549.38,-222.75 549.38,-195.5 462.12,-195.5"/>
<text text-anchor="start" x="467.12" y="-205.45" font-family="Helvetica,sans-Serif" text-decoration="underline" font-size="14.00">id</text>
<polygon fill="none" stroke="black" points="462.12,-168.25 462.12,-195.5 549.38,-195.5 549.38,-168.25 462.12,-168.25"/>
<text text-anchor="start" x="467.12" y="-177.2" font-family="Helvetica,sans-Serif" font-size="14.00">name</text>
<polygon fill="none" stroke="black" points="462.12,-141 462.12,-168.25 549.38,-168.25 549.38,-141 462.12,-141"/>
<text text-anchor="start" x="467.12" y="-149.95" font-family="Helvetica,sans-Serif" font-size="14.00">description</text>
</g>
<!-- Permission -->
<g id="node7" class="node">
<title>Permission</title>
<polygon fill="none" stroke="black" points="450.88,-85.75 450.88,-115.25 560.62,-115.25 560.62,-85.75 450.88,-85.75"/>
<text text-anchor="start" x="455.88" y="-96.05" font-family="Helvetica,sans-Serif" font-weight="bold" font-size="16.00">Permission</text>
<polygon fill="none" stroke="black" points="450.88,-58.5 450.88,-85.75 560.62,-85.75 560.62,-58.5 450.88,-58.5"/>
<text text-anchor="start" x="455.88" y="-68.45" font-family="Helvetica,sans-Serif" text-decoration="underline" font-size="14.00">id</text>
<polygon fill="none" stroke="black" points="450.88,-31.25 450.88,-58.5 560.62,-58.5 560.62,-31.25 450.88,-31.25"/>
<text text-anchor="start" x="455.88" y="-40.2" font-family="Helvetica,sans-Serif" font-size="14.00">name</text>
<polygon fill="none" stroke="black" points="450.88,-4 450.88,-31.25 560.62,-31.25 560.62,-4 450.88,-4"/>
<text text-anchor="start" x="455.88" y="-12.95" font-family="Helvetica,sans-Serif" font-size="14.00">description</text>
</g>
<!-- UserRole&#45;&#45;Role -->
<g id="edge7" class="edge">
<title>UserRole&#45;&#45;Role</title>
<path fill="none" stroke="#7f7f7f" stroke-dasharray="5,2" d="M335.75,-214.2C371.63,-210.47 419.03,-205.54 454.5,-201.85"/>
<text text-anchor="start" x="445.5" y="-188.55" font-family="Times,serif" font-size="14.00">1</text>
<text text-anchor="start" x="335.75" y="-200.9" font-family="Times,serif" font-size="14.00">0..N</text>
</g>
<!-- RolePermission -->
<g id="node9" class="node">
<title>RolePermission</title>
<polygon fill="none" stroke="black" points="208.25,-100.75 208.25,-130.25 357,-130.25 357,-100.75 208.25,-100.75"/>
<text text-anchor="start" x="213.25" y="-111.05" font-family="Helvetica,sans-Serif" font-weight="bold" font-size="16.00">RolePermission</text>
<polygon fill="none" stroke="black" points="208.25,-73.5 208.25,-100.75 357,-100.75 357,-73.5 208.25,-73.5"/>
<text text-anchor="start" x="213.25" y="-83.45" font-family="Helvetica,sans-Serif" text-decoration="underline" font-size="14.00">id</text>
<polygon fill="none" stroke="black" points="208.25,-46.25 208.25,-73.5 357,-73.5 357,-46.25 208.25,-46.25"/>
<text text-anchor="start" x="213.25" y="-55.2" font-family="Helvetica,sans-Serif" font-size="14.00">roleId</text>
<polygon fill="none" stroke="black" points="208.25,-19 208.25,-46.25 357,-46.25 357,-19 208.25,-19"/>
<text text-anchor="start" x="213.25" y="-27.95" font-family="Helvetica,sans-Serif" font-size="14.00">permissionId</text>
</g>
<!-- RolePermission&#45;&#45;Role -->
<g id="edge8" class="edge">
<title>RolePermission&#45;&#45;Role</title>
<path fill="none" stroke="#7f7f7f" stroke-dasharray="5,2" d="M364.71,-119.36C394.66,-135.89 427.73,-154.13 454.2,-168.74"/>
<text text-anchor="start" x="445.2" y="-155.44" font-family="Times,serif" font-size="14.00">1</text>
<text text-anchor="start" x="364.71" y="-106.06" font-family="Times,serif" font-size="14.00">0..N</text>
</g>
<!-- RolePermission&#45;&#45;Permission -->
<g id="edge9" class="edge">
<title>RolePermission&#45;&#45;Permission</title>
<path fill="none" stroke="#7f7f7f" stroke-dasharray="5,2" d="M364.71,-69.12C390.59,-67.37 418.8,-65.46 443.08,-63.81"/>
<text text-anchor="start" x="434.08" y="-50.51" font-family="Times,serif" font-size="14.00">1</text>
<text text-anchor="start" x="364.71" y="-55.82" font-family="Times,serif" font-size="14.00">0..N</text>
</g>
</g>
</svg>
