<?xml version="1.0" encoding="UTF-8" standalone="no"?>
<!DOCTYPE svg PUBLIC "-//W3C//DTD SVG 1.1//EN"
 "http://www.w3.org/Graphics/SVG/1.1/DTD/svg11.dtd">
<!-- Generated by graphviz version 9.0.0 (20230911.1827)
 -->
<!-- Pages: 1 -->
<svg width="1208pt" height="1208pt"
 viewBox="0.00 0.00 544.00 1208.12" xmlns="http://www.w3.org/2000/svg" xmlns:xlink="http://www.w3.org/1999/xlink">
<g id="graph0" class="graph" transform="scale(1 1) rotate(0) translate(4 1204.12)">
<polygon fill="white" stroke="none" points="-4,4 -4,-1204.12 540,-1204.12 540,4 -4,4"/>
<!-- User -->
<g id="node1" class="node">
<title>User</title>
<polygon fill="none" stroke="black" points="8,-599.38 8,-628.88 81.75,-628.88 81.75,-599.38 8,-599.38"/>
<text text-anchor="start" x="24.25" y="-609.67" font-family="Helvetica,sans-Serif" font-weight="bold" font-size="16.00">User</text>
<polygon fill="none" stroke="black" points="8,-572.12 8,-599.38 81.75,-599.38 81.75,-572.12 8,-572.12"/>
<text text-anchor="start" x="13" y="-582.08" font-family="Helvetica,sans-Serif" text-decoration="underline" font-size="14.00">id</text>
<polygon fill="none" stroke="black" points="8,-544.88 8,-572.12 81.75,-572.12 81.75,-544.88 8,-544.88"/>
<text text-anchor="start" x="13" y="-553.83" font-family="Helvetica,sans-Serif" font-size="14.00">email</text>
<polygon fill="none" stroke="black" points="8,-517.62 8,-544.88 81.75,-544.88 81.75,-517.62 8,-517.62"/>
<text text-anchor="start" x="13" y="-526.58" font-family="Helvetica,sans-Serif" font-size="14.00">isVerified</text>
<polygon fill="none" stroke="black" points="8,-490.38 8,-517.62 81.75,-517.62 81.75,-490.38 8,-490.38"/>
<text text-anchor="start" x="13" y="-499.32" font-family="Helvetica,sans-Serif" font-size="14.00">profile</text>
</g>
<!-- Token -->
<g id="node2" class="node">
<title>Token</title>
<polygon fill="none" stroke="black" points="205.62,-770.5 205.62,-800 284.62,-800 284.62,-770.5 205.62,-770.5"/>
<text text-anchor="start" x="218.88" y="-780.8" font-family="Helvetica,sans-Serif" font-weight="bold" font-size="16.00">Token</text>
<polygon fill="none" stroke="black" points="205.62,-743.25 205.62,-770.5 284.62,-770.5 284.62,-743.25 205.62,-743.25"/>
<text text-anchor="start" x="210.62" y="-753.2" font-family="Helvetica,sans-Serif" text-decoration="underline" font-size="14.00">id</text>
<polygon fill="none" stroke="black" points="205.62,-716 205.62,-743.25 284.62,-743.25 284.62,-716 205.62,-716"/>
<text text-anchor="start" x="210.62" y="-724.95" font-family="Helvetica,sans-Serif" font-size="14.00">userId</text>
<polygon fill="none" stroke="black" points="205.62,-688.75 205.62,-716 284.62,-716 284.62,-688.75 205.62,-688.75"/>
<text text-anchor="start" x="210.62" y="-697.7" font-family="Helvetica,sans-Serif" font-size="14.00">appId</text>
<polygon fill="none" stroke="black" points="205.62,-661.5 205.62,-688.75 284.62,-688.75 284.62,-661.5 205.62,-661.5"/>
<text text-anchor="start" x="210.62" y="-670.45" font-family="Helvetica,sans-Serif" font-size="14.00">deviceId</text>
<polygon fill="none" stroke="black" points="205.62,-634.25 205.62,-661.5 284.62,-661.5 284.62,-634.25 205.62,-634.25"/>
<text text-anchor="start" x="210.62" y="-643.2" font-family="Helvetica,sans-Serif" font-size="14.00">type</text>
<polygon fill="none" stroke="black" points="205.62,-607 205.62,-634.25 284.62,-634.25 284.62,-607 205.62,-607"/>
<text text-anchor="start" x="210.62" y="-615.95" font-family="Helvetica,sans-Serif" font-size="14.00">token</text>
<polygon fill="none" stroke="black" points="205.62,-579.75 205.62,-607 284.62,-607 284.62,-579.75 205.62,-579.75"/>
<text text-anchor="start" x="210.62" y="-588.7" font-family="Helvetica,sans-Serif" font-size="14.00">expiresAt</text>
<polygon fill="none" stroke="black" points="205.62,-552.5 205.62,-579.75 284.62,-579.75 284.62,-552.5 205.62,-552.5"/>
<text text-anchor="start" x="210.62" y="-561.45" font-family="Helvetica,sans-Serif" font-size="14.00">createdAt</text>
<polygon fill="none" stroke="black" points="205.62,-525.25 205.62,-552.5 284.62,-552.5 284.62,-525.25 205.62,-525.25"/>
<text text-anchor="start" x="210.62" y="-534.2" font-family="Helvetica,sans-Serif" font-size="14.00">revokedAt</text>
</g>
<!-- User&#45;&#45;Token -->
<g id="edge6" class="edge">
<title>User&#45;&#45;Token</title>
<path fill="none" stroke="#7f7f7f" stroke-dasharray="5,2" d="M89.38,-582.23C121.52,-598.93 165.2,-621.62 197.96,-638.64"/>
<text text-anchor="start" x="167.96" y="-625.34" font-family="Times,serif" font-size="14.00">0..N</text>
<text text-anchor="start" x="89.38" y="-568.93" font-family="Times,serif" font-size="14.00">1</text>
</g>
<!-- Device -->
<g id="node3" class="node">
<title>Device</title>
<polygon fill="none" stroke="black" points="408.5,-1166.62 408.5,-1196.12 528,-1196.12 528,-1166.62 408.5,-1166.62"/>
<text text-anchor="start" x="438.25" y="-1176.92" font-family="Helvetica,sans-Serif" font-weight="bold" font-size="16.00">Device</text>
<polygon fill="none" stroke="black" points="408.5,-1139.38 408.5,-1166.62 528,-1166.62 528,-1139.38 408.5,-1139.38"/>
<text text-anchor="start" x="413.5" y="-1149.33" font-family="Helvetica,sans-Serif" text-decoration="underline" font-size="14.00">id</text>
<polygon fill="none" stroke="black" points="408.5,-1112.12 408.5,-1139.38 528,-1139.38 528,-1112.12 408.5,-1112.12"/>
<text text-anchor="start" x="413.5" y="-1121.08" font-family="Helvetica,sans-Serif" font-size="14.00">userId</text>
<polygon fill="none" stroke="black" points="408.5,-1084.88 408.5,-1112.12 528,-1112.12 528,-1084.88 408.5,-1084.88"/>
<text text-anchor="start" x="413.5" y="-1093.83" font-family="Helvetica,sans-Serif" font-size="14.00">userAgent</text>
<polygon fill="none" stroke="black" points="408.5,-1057.62 408.5,-1084.88 528,-1084.88 528,-1057.62 408.5,-1057.62"/>
<text text-anchor="start" x="413.5" y="-1066.58" font-family="Helvetica,sans-Serif" font-size="14.00">deviceType</text>
<polygon fill="none" stroke="black" points="408.5,-1030.38 408.5,-1057.62 528,-1057.62 528,-1030.38 408.5,-1030.38"/>
<text text-anchor="start" x="413.5" y="-1039.33" font-family="Helvetica,sans-Serif" font-size="14.00">ipAddress</text>
<polygon fill="none" stroke="black" points="408.5,-1003.12 408.5,-1030.38 528,-1030.38 528,-1003.12 408.5,-1003.12"/>
<text text-anchor="start" x="413.5" y="-1012.08" font-family="Helvetica,sans-Serif" font-size="14.00">browser</text>
<polygon fill="none" stroke="black" points="408.5,-975.88 408.5,-1003.12 528,-1003.12 528,-975.88 408.5,-975.88"/>
<text text-anchor="start" x="413.5" y="-984.83" font-family="Helvetica,sans-Serif" font-size="14.00">browserVersion</text>
<polygon fill="none" stroke="black" points="408.5,-948.62 408.5,-975.88 528,-975.88 528,-948.62 408.5,-948.62"/>
<text text-anchor="start" x="413.5" y="-957.58" font-family="Helvetica,sans-Serif" font-size="14.00">os</text>
<polygon fill="none" stroke="black" points="408.5,-921.38 408.5,-948.62 528,-948.62 528,-921.38 408.5,-921.38"/>
<text text-anchor="start" x="413.5" y="-930.33" font-family="Helvetica,sans-Serif" font-size="14.00">osVersion</text>
<polygon fill="none" stroke="black" points="408.5,-894.12 408.5,-921.38 528,-921.38 528,-894.12 408.5,-894.12"/>
<text text-anchor="start" x="413.5" y="-903.08" font-family="Helvetica,sans-Serif" font-size="14.00">deviceVendor</text>
<polygon fill="none" stroke="black" points="408.5,-866.88 408.5,-894.12 528,-894.12 528,-866.88 408.5,-866.88"/>
<text text-anchor="start" x="413.5" y="-875.83" font-family="Helvetica,sans-Serif" font-size="14.00">deviceModel</text>
<polygon fill="none" stroke="black" points="408.5,-839.62 408.5,-866.88 528,-866.88 528,-839.62 408.5,-839.62"/>
<text text-anchor="start" x="413.5" y="-848.58" font-family="Helvetica,sans-Serif" font-size="14.00">engine</text>
<polygon fill="none" stroke="black" points="408.5,-812.38 408.5,-839.62 528,-839.62 528,-812.38 408.5,-812.38"/>
<text text-anchor="start" x="413.5" y="-821.33" font-family="Helvetica,sans-Serif" font-size="14.00">engineVersion</text>
<polygon fill="none" stroke="black" points="408.5,-785.12 408.5,-812.38 528,-812.38 528,-785.12 408.5,-785.12"/>
<text text-anchor="start" x="413.5" y="-794.08" font-family="Helvetica,sans-Serif" font-size="14.00">cpuArchitecture</text>
<polygon fill="none" stroke="black" points="408.5,-757.88 408.5,-785.12 528,-785.12 528,-757.88 408.5,-757.88"/>
<text text-anchor="start" x="413.5" y="-766.83" font-family="Helvetica,sans-Serif" font-size="14.00">city</text>
<polygon fill="none" stroke="black" points="408.5,-730.62 408.5,-757.88 528,-757.88 528,-730.62 408.5,-730.62"/>
<text text-anchor="start" x="413.5" y="-739.58" font-family="Helvetica,sans-Serif" font-size="14.00">country</text>
<polygon fill="none" stroke="black" points="408.5,-703.38 408.5,-730.62 528,-730.62 528,-703.38 408.5,-703.38"/>
<text text-anchor="start" x="413.5" y="-712.33" font-family="Helvetica,sans-Serif" font-size="14.00">region</text>
<polygon fill="none" stroke="black" points="408.5,-676.12 408.5,-703.38 528,-703.38 528,-676.12 408.5,-676.12"/>
<text text-anchor="start" x="413.5" y="-685.08" font-family="Helvetica,sans-Serif" font-size="14.00">language</text>
<polygon fill="none" stroke="black" points="408.5,-648.88 408.5,-676.12 528,-676.12 528,-648.88 408.5,-648.88"/>
<text text-anchor="start" x="413.5" y="-657.83" font-family="Helvetica,sans-Serif" font-size="14.00">referer</text>
<polygon fill="none" stroke="black" points="408.5,-621.62 408.5,-648.88 528,-648.88 528,-621.62 408.5,-621.62"/>
<text text-anchor="start" x="413.5" y="-630.58" font-family="Helvetica,sans-Serif" font-size="14.00">isSecure</text>
<polygon fill="none" stroke="black" points="408.5,-594.38 408.5,-621.62 528,-621.62 528,-594.38 408.5,-594.38"/>
<text text-anchor="start" x="413.5" y="-603.33" font-family="Helvetica,sans-Serif" font-size="14.00">timestamp</text>
<polygon fill="none" stroke="black" points="408.5,-567.12 408.5,-594.38 528,-594.38 528,-567.12 408.5,-567.12"/>
<text text-anchor="start" x="413.5" y="-576.08" font-family="Helvetica,sans-Serif" font-size="14.00">deviceInfo</text>
</g>
<!-- User&#45;&#45;Device -->
<g id="edge3" class="edge">
<title>User&#45;&#45;Device</title>
<path fill="none" stroke="#7f7f7f" stroke-dasharray="5,2" d="M57.14,-632.48C74.61,-734.71 111.61,-912.54 162.75,-950.62 232.41,-1002.51 334.18,-962.4 400.56,-925.14"/>
<text text-anchor="start" x="370.56" y="-911.84" font-family="Times,serif" font-size="14.00">0..N</text>
<text text-anchor="start" x="27.14" y="-636.43" font-family="Times,serif" font-size="14.00">1..N</text>
</g>
<!-- UserAccount -->
<g id="node5" class="node">
<title>UserAccount</title>
<polygon fill="none" stroke="black" points="182.75,-469.25 182.75,-498.75 307.5,-498.75 307.5,-469.25 182.75,-469.25"/>
<text text-anchor="start" x="187.75" y="-479.55" font-family="Helvetica,sans-Serif" font-weight="bold" font-size="16.00">UserAccount</text>
<polygon fill="none" stroke="black" points="182.75,-442 182.75,-469.25 307.5,-469.25 307.5,-442 182.75,-442"/>
<text text-anchor="start" x="187.75" y="-451.95" font-family="Helvetica,sans-Serif" text-decoration="underline" font-size="14.00">id</text>
<polygon fill="none" stroke="black" points="182.75,-414.75 182.75,-442 307.5,-442 307.5,-414.75 182.75,-414.75"/>
<text text-anchor="start" x="187.75" y="-423.7" font-family="Helvetica,sans-Serif" font-size="14.00">userId</text>
<polygon fill="none" stroke="black" points="182.75,-387.5 182.75,-414.75 307.5,-414.75 307.5,-387.5 182.75,-387.5"/>
<text text-anchor="start" x="187.75" y="-396.45" font-family="Helvetica,sans-Serif" font-size="14.00">appId</text>
<polygon fill="none" stroke="black" points="182.75,-360.25 182.75,-387.5 307.5,-387.5 307.5,-360.25 182.75,-360.25"/>
<text text-anchor="start" x="187.75" y="-369.2" font-family="Helvetica,sans-Serif" font-size="14.00">username</text>
<polygon fill="none" stroke="black" points="182.75,-333 182.75,-360.25 307.5,-360.25 307.5,-333 182.75,-333"/>
<text text-anchor="start" x="187.75" y="-341.95" font-family="Helvetica,sans-Serif" font-size="14.00">passwordHash</text>
<polygon fill="none" stroke="black" points="182.75,-305.75 182.75,-333 307.5,-333 307.5,-305.75 182.75,-305.75"/>
<text text-anchor="start" x="187.75" y="-314.7" font-family="Helvetica,sans-Serif" font-size="14.00">status</text>
<polygon fill="none" stroke="black" points="182.75,-278.5 182.75,-305.75 307.5,-305.75 307.5,-278.5 182.75,-278.5"/>
<text text-anchor="start" x="187.75" y="-287.45" font-family="Helvetica,sans-Serif" font-size="14.00">createdAt</text>
</g>
<!-- User&#45;&#45;UserAccount -->
<g id="edge5" class="edge">
<title>User&#45;&#45;UserAccount</title>
<path fill="none" stroke="#7f7f7f" stroke-dasharray="5,2" d="M89.38,-522.1C114.46,-500.47 146.55,-472.78 175.01,-448.24"/>
<text text-anchor="start" x="145.01" y="-434.94" font-family="Times,serif" font-size="14.00">0..N</text>
<text text-anchor="start" x="89.38" y="-508.8" font-family="Times,serif" font-size="14.00">1</text>
</g>
<!-- UserRole -->
<g id="node9" class="node">
<title>UserRole</title>
<polygon fill="none" stroke="black" points="200,-222.75 200,-252.25 290.25,-252.25 290.25,-222.75 200,-222.75"/>
<text text-anchor="start" x="205" y="-233.05" font-family="Helvetica,sans-Serif" font-weight="bold" font-size="16.00">UserRole</text>
<polygon fill="none" stroke="black" points="200,-195.5 200,-222.75 290.25,-222.75 290.25,-195.5 200,-195.5"/>
<text text-anchor="start" x="205" y="-205.45" font-family="Helvetica,sans-Serif" text-decoration="underline" font-size="14.00">id</text>
<polygon fill="none" stroke="black" points="200,-168.25 200,-195.5 290.25,-195.5 290.25,-168.25 200,-168.25"/>
<text text-anchor="start" x="205" y="-177.2" font-family="Helvetica,sans-Serif" font-size="14.00">userId</text>
<polygon fill="none" stroke="black" points="200,-141 200,-168.25 290.25,-168.25 290.25,-141 200,-141"/>
<text text-anchor="start" x="205" y="-149.95" font-family="Helvetica,sans-Serif" font-size="14.00">roleId</text>
</g>
<!-- User&#45;&#45;UserRole -->
<g id="edge7" class="edge">
<title>User&#45;&#45;UserRole</title>
<path fill="none" stroke="#7f7f7f" stroke-dasharray="5,2" d="M64.13,-486.44C82.18,-423.77 114.2,-333.21 162.75,-265.62 170.96,-254.19 181.47,-243.47 192.19,-234.03"/>
<text text-anchor="start" x="162.19" y="-220.73" font-family="Times,serif" font-size="14.00">0..N</text>
<text text-anchor="start" x="55.13" y="-473.14" font-family="Times,serif" font-size="14.00">1</text>
</g>
<!-- Token&#45;&#45;Device -->
<g id="edge1" class="edge">
<title>Token&#45;&#45;Device</title>
<path fill="none" stroke="#7f7f7f" stroke-dasharray="5,2" d="M292.48,-708.53C323.89,-739.64 365.87,-781.22 400.82,-815.83"/>
<text text-anchor="start" x="360.32" y="-802.53" font-family="Times,serif" font-size="14.00">{0,1}</text>
<text text-anchor="start" x="292.48" y="-695.23" font-family="Times,serif" font-size="14.00">0..N</text>
</g>
<!-- Application -->
<g id="node6" class="node">
<title>Application</title>
<polygon fill="none" stroke="black" points="412.62,-483.12 412.62,-512.62 523.88,-512.62 523.88,-483.12 412.62,-483.12"/>
<text text-anchor="start" x="417.62" y="-493.43" font-family="Helvetica,sans-Serif" font-weight="bold" font-size="16.00">Application</text>
<polygon fill="none" stroke="black" points="412.62,-455.88 412.62,-483.12 523.88,-483.12 523.88,-455.88 412.62,-455.88"/>
<text text-anchor="start" x="417.62" y="-465.82" font-family="Helvetica,sans-Serif" text-decoration="underline" font-size="14.00">id</text>
<polygon fill="none" stroke="black" points="412.62,-428.62 412.62,-455.88 523.88,-455.88 523.88,-428.62 412.62,-428.62"/>
<text text-anchor="start" x="417.62" y="-437.57" font-family="Helvetica,sans-Serif" font-size="14.00">name</text>
</g>
<!-- Token&#45;&#45;Application -->
<g id="edge2" class="edge">
<title>Token&#45;&#45;Application</title>
<path fill="none" stroke="#7f7f7f" stroke-dasharray="5,2" d="M292.48,-622.38C328.07,-591.48 377.23,-548.78 414.36,-516.55"/>
<text text-anchor="start" x="405.36" y="-520.5" font-family="Times,serif" font-size="14.00">1</text>
<text text-anchor="start" x="292.48" y="-609.08" font-family="Times,serif" font-size="14.00">0..N</text>
</g>
<!-- Ip -->
<g id="node4" class="node">
<title>Ip</title>
<polygon fill="none" stroke="black" points="206,-907.75 206,-937.25 284.25,-937.25 284.25,-907.75 206,-907.75"/>
<text text-anchor="start" x="236.5" y="-918.05" font-family="Helvetica,sans-Serif" font-weight="bold" font-size="16.00">Ip</text>
<polygon fill="none" stroke="black" points="206,-880.5 206,-907.75 284.25,-907.75 284.25,-880.5 206,-880.5"/>
<text text-anchor="start" x="211" y="-890.45" font-family="Helvetica,sans-Serif" text-decoration="underline" font-size="14.00">id</text>
<polygon fill="none" stroke="black" points="206,-853.25 206,-880.5 284.25,-880.5 284.25,-853.25 206,-853.25"/>
<text text-anchor="start" x="211" y="-862.2" font-family="Helvetica,sans-Serif" font-size="14.00">deviceId</text>
<polygon fill="none" stroke="black" points="206,-826 206,-853.25 284.25,-853.25 284.25,-826 206,-826"/>
<text text-anchor="start" x="211" y="-834.95" font-family="Helvetica,sans-Serif" font-size="14.00">ipAddress</text>
</g>
<!-- Ip&#45;&#45;Device -->
<g id="edge4" class="edge">
<title>Ip&#45;&#45;Device</title>
<path fill="none" stroke="#7f7f7f" stroke-dasharray="5,2" d="M292.21,-881.62C323.6,-881.62 365.65,-881.62 400.67,-881.62"/>
<text text-anchor="start" x="370.67" y="-868.33" font-family="Times,serif" font-size="14.00">0..N</text>
<text text-anchor="start" x="292.21" y="-868.33" font-family="Times,serif" font-size="14.00">0..N</text>
</g>
<!-- UserAccount&#45;&#45;Application -->
<g id="edge11" class="edge">
<title>UserAccount&#45;&#45;Application</title>
<path fill="none" stroke="#7f7f7f" stroke-dasharray="5,2" d="M315.48,-414.35C344.11,-424.96 377.03,-437.17 404.88,-447.5"/>
<text text-anchor="start" x="395.88" y="-434.2" font-family="Times,serif" font-size="14.00">1</text>
<text text-anchor="start" x="315.48" y="-401.05" font-family="Times,serif" font-size="14.00">0..N</text>
</g>
<!-- Role -->
<g id="node7" class="node">
<title>Role</title>
<polygon fill="none" stroke="black" points="424.62,-222.75 424.62,-252.25 511.88,-252.25 511.88,-222.75 424.62,-222.75"/>
<text text-anchor="start" x="448.75" y="-233.05" font-family="Helvetica,sans-Serif" font-weight="bold" font-size="16.00">Role</text>
<polygon fill="none" stroke="black" points="424.62,-195.5 424.62,-222.75 511.88,-222.75 511.88,-195.5 424.62,-195.5"/>
<text text-anchor="start" x="429.62" y="-205.45" font-family="Helvetica,sans-Serif" text-decoration="underline" font-size="14.00">id</text>
<polygon fill="none" stroke="black" points="424.62,-168.25 424.62,-195.5 511.88,-195.5 511.88,-168.25 424.62,-168.25"/>
<text text-anchor="start" x="429.62" y="-177.2" font-family="Helvetica,sans-Serif" font-size="14.00">name</text>
<polygon fill="none" stroke="black" points="424.62,-141 424.62,-168.25 511.88,-168.25 511.88,-141 424.62,-141"/>
<text text-anchor="start" x="429.62" y="-149.95" font-family="Helvetica,sans-Serif" font-size="14.00">description</text>
</g>
<!-- Permission -->
<g id="node8" class="node">
<title>Permission</title>
<polygon fill="none" stroke="black" points="413.38,-85.75 413.38,-115.25 523.12,-115.25 523.12,-85.75 413.38,-85.75"/>
<text text-anchor="start" x="418.38" y="-96.05" font-family="Helvetica,sans-Serif" font-weight="bold" font-size="16.00">Permission</text>
<polygon fill="none" stroke="black" points="413.38,-58.5 413.38,-85.75 523.12,-85.75 523.12,-58.5 413.38,-58.5"/>
<text text-anchor="start" x="418.38" y="-68.45" font-family="Helvetica,sans-Serif" text-decoration="underline" font-size="14.00">id</text>
<polygon fill="none" stroke="black" points="413.38,-31.25 413.38,-58.5 523.12,-58.5 523.12,-31.25 413.38,-31.25"/>
<text text-anchor="start" x="418.38" y="-40.2" font-family="Helvetica,sans-Serif" font-size="14.00">name</text>
<polygon fill="none" stroke="black" points="413.38,-4 413.38,-31.25 523.12,-31.25 523.12,-4 413.38,-4"/>
<text text-anchor="start" x="418.38" y="-12.95" font-family="Helvetica,sans-Serif" font-size="14.00">description</text>
</g>
<!-- UserRole&#45;&#45;Role -->
<g id="edge8" class="edge">
<title>UserRole&#45;&#45;Role</title>
<path fill="none" stroke="#7f7f7f" stroke-dasharray="5,2" d="M298.25,-196.62C334.13,-196.62 381.53,-196.62 417,-196.62"/>
<text text-anchor="start" x="408" y="-183.32" font-family="Times,serif" font-size="14.00">1</text>
<text text-anchor="start" x="298.25" y="-183.32" font-family="Times,serif" font-size="14.00">0..N</text>
</g>
<!-- RolePermission -->
<g id="node10" class="node">
<title>RolePermission</title>
<polygon fill="none" stroke="black" points="170.75,-85.75 170.75,-115.25 319.5,-115.25 319.5,-85.75 170.75,-85.75"/>
<text text-anchor="start" x="175.75" y="-96.05" font-family="Helvetica,sans-Serif" font-weight="bold" font-size="16.00">RolePermission</text>
<polygon fill="none" stroke="black" points="170.75,-58.5 170.75,-85.75 319.5,-85.75 319.5,-58.5 170.75,-58.5"/>
<text text-anchor="start" x="175.75" y="-68.45" font-family="Helvetica,sans-Serif" text-decoration="underline" font-size="14.00">id</text>
<polygon fill="none" stroke="black" points="170.75,-31.25 170.75,-58.5 319.5,-58.5 319.5,-31.25 170.75,-31.25"/>
<text text-anchor="start" x="175.75" y="-40.2" font-family="Helvetica,sans-Serif" font-size="14.00">roleId</text>
<polygon fill="none" stroke="black" points="170.75,-4 170.75,-31.25 319.5,-31.25 319.5,-4 170.75,-4"/>
<text text-anchor="start" x="175.75" y="-12.95" font-family="Helvetica,sans-Serif" font-size="14.00">permissionId</text>
</g>
<!-- RolePermission&#45;&#45;Role -->
<g id="edge9" class="edge">
<title>RolePermission&#45;&#45;Role</title>
<path fill="none" stroke="#7f7f7f" stroke-dasharray="5,2" d="M327.21,-109.86C357.16,-128.42 390.23,-148.9 416.7,-165.31"/>
<text text-anchor="start" x="407.7" y="-152.01" font-family="Times,serif" font-size="14.00">1</text>
<text text-anchor="start" x="327.21" y="-96.56" font-family="Times,serif" font-size="14.00">0..N</text>
</g>
<!-- RolePermission&#45;&#45;Permission -->
<g id="edge10" class="edge">
<title>RolePermission&#45;&#45;Permission</title>
<path fill="none" stroke="#7f7f7f" stroke-dasharray="5,2" d="M327.21,-59.62C353.09,-59.62 381.3,-59.62 405.58,-59.62"/>
<text text-anchor="start" x="396.58" y="-46.33" font-family="Times,serif" font-size="14.00">1</text>
<text text-anchor="start" x="327.21" y="-46.33" font-family="Times,serif" font-size="14.00">0..N</text>
</g>
</g>
</svg>
